<svg xmlns="http://www.w3.org/2000/svg" width="236.2100067138672" height="236.2100067138672" style=""><rect id="backgroundrect" width="100%" height="100%" x="0" y="0" fill="none" stroke="none"/><defs><filter id="f030" xmlns:inkscape="http://www.inkscape.org/namespaces/inkscape" inkscape:label="Desaturate" x="0" y="0" width="1" height="1" inkscape:menu="Color" inkscape:menu-tooltip="Render in shades of gray by reducing saturation to zero" color-interpolation-filters="sRGB">
            <feColorMatrix type="saturate" values="0"/>
        </filter></defs><title>MITSMR-CS-green-download-icon</title><g class="currentLayer" style=""><title>Layer 1</title><path class="a selected" d="M118.1000001525879,4.768371586472142e-8 a121.2,121.2 0 0 1 31.8,4.17 a118.42,118.42 0 0 1 28.39,11.66 a116,116 0 0 1 42.1,42.1 a118.42,118.42 0 0 1 11.66,28.39 a123.14,123.14 0 0 1 0,63.53 a117.82,117.82 0 0 1 -11.66,28.36 a116.78,116.78 0 0 1 -42.1,42.16 a117.65,117.65 0 0 1 -28.39,11.69 a123.14,123.14 0 0 1 -63.53,0 a117.05,117.05 0 0 1 -28.36,-11.69 A117.54,117.54 0 0 1 15.850000152587892,178.20000004768372 A117.05,117.05 0 0 1 4.160000152587891,149.8400000476837 a123.14,123.14 0 0 1 0,-63.53 A117.65,117.65 0 0 1 15.850000152587892,57.920000047683715 a116.8,116.8 0 0 1 42.16,-42.1 A117.81,117.81 0 0 1 86.37000015258789,4.170000047683716 A121,121 0 0 1 118.1000001525879,4.768371586472142e-8 zm81.22,177.13 V132.8600000476837 a14.76,14.76 0 1 0 -29.51,0 v29.51 H66.4600001525879 V132.8600000476837 a14.71,14.71 0 0 0 -14.76,-14.76 A14.76,14.76 0 0 0 36.89000015258789,132.8600000476837 v44.27 a14.76,14.76 0 0 0 14.81,14.81 H184.5900001525879 a15.89,15.89 0 0 0 5.75,-1.18 a14.75,14.75 0 0 0 6.53,-5.44 A14.39,14.39 0 0 0 199.32000015258788,177.13000004768372 zM70.7900001525879,85.70000004768372 A14.24,14.24 0 0 0 66.4000001525879,96.20000004768372 A14.06,14.06 0 0 0 70.7900001525879,106.70000004768372 l36.72,36.55 a14.69,14.69 0 0 0 21,0 c0.12000000000000001,0 0.17,0 0.17,-0.11000000000000001 h0.11000000000000001 l36.66,-36.67 a14,14 0 0 0 4.4,-10.42 a15,15 0 0 0 -14.84,-14.870000000000001 a14.52,14.52 0 0 0 -10.56,4.39 L132.5900001525879,97.32000004768372 V44.270000047683716 a14.76,14.76 0 1 0 -29.51,0 V96.99000004768372 L91.80000015258788,85.70000004768372 a14.46,14.46 0 0 0 -10.53,-4.34 A14.28,14.28 0 0 0 70.7900001525879,85.70000004768372 z" id="svg_1" filter="url(#f030)"/></g></svg>