<svg xmlns="http://www.w3.org/2000/svg" viewBox="0 0 236.21 236.21"><defs><style>.a{fill:#006b67;}</style></defs><title>MITSMR-CS-green-download-icon</title><path class="a" d="M122.51,1.3a121.2,121.2,0,0,1,31.8,4.17,118.42,118.42,0,0,1,28.39,11.66,116,116,0,0,1,42.1,42.1,118.42,118.42,0,0,1,11.66,28.39,123.14,123.14,0,0,1,0,63.53,117.82,117.82,0,0,1-11.66,28.36,116.78,116.78,0,0,1-42.1,42.16,117.65,117.65,0,0,1-28.39,11.69,123.14,123.14,0,0,1-63.53,0,117.05,117.05,0,0,1-28.36-11.69A117.54,117.54,0,0,1,20.26,179.5,117.05,117.05,0,0,1,8.57,151.14a123.14,123.14,0,0,1,0-63.53A117.65,117.65,0,0,1,20.26,59.22a116.8,116.8,0,0,1,42.16-42.1A117.81,117.81,0,0,1,90.78,5.47,121,121,0,0,1,122.51,1.3Zm81.22,177.13V134.16a14.76,14.76,0,1,0-29.51,0v29.51H70.87V134.16a14.71,14.71,0,0,0-14.76-14.76A14.76,14.76,0,0,0,41.3,134.16v44.27a14.76,14.76,0,0,0,14.81,14.81H189a15.89,15.89,0,0,0,5.75-1.18,14.75,14.75,0,0,0,6.53-5.44A14.39,14.39,0,0,0,203.73,178.43ZM75.2,87A14.24,14.24,0,0,0,70.81,97.5,14.06,14.06,0,0,0,75.2,108l36.72,36.55a14.69,14.69,0,0,0,21,0c.12,0,.17,0,.17-.11h.11l36.66-36.67a14,14,0,0,0,4.4-10.42,15,15,0,0,0-14.84-14.87,14.52,14.52,0,0,0-10.56,4.39L137,98.62V45.57a14.76,14.76,0,1,0-29.51,0V98.29L96.21,87a14.46,14.46,0,0,0-10.53-4.34A14.28,14.28,0,0,0,75.2,87Z" transform="translate(-4.41 -1.3)"/></svg>