<svg xmlns="http://www.w3.org/2000/svg" width="96" height="96"><rect id="backgroundrect" width="100%" height="100%" x="0" y="0" fill="none" stroke="none"/>
 <style type="text/css">.st0{fill:#333333;}</style>

 <g style="">
  <title>background</title>
  <rect fill="none" id="canvas_background" height="402" width="582" y="-1" x="-1"/>
 </g>
 <g style="" class="currentLayer">
  <title>Layer 1</title>
  <path stroke="null" id="svg_1" d="m48.007374,-0.00413c-26.537267,0 -48.011504,21.474236 -48.011504,48.011504s21.474236,48.011504 48.011504,48.011504s48.011504,-21.474236 48.011504,-48.011504s-21.474236,-48.011504 -48.011504,-48.011504zm-0.523762,26.188093l16.236618,13.443221l-2.444222,2.793397l-16.236618,-13.617808l2.444222,-2.618809zm-5.76138,8.031015l18.331665,9.427713l-1.571286,3.142571l-18.331665,-9.427713l1.571286,-3.142571zm-4.364682,9.602301l20.426712,5.063031l-0.872936,3.666333l-20.426712,-5.063031l0.872936,-3.666333zm-1.396698,8.554777l20.950474,1.92046l-0.349175,3.666333l-20.950474,-1.92046l0.349175,-3.666333zm-0.523762,7.856428l21.299649,0l0,3.666333l-21.299649,0l0,-3.666333zm28.806902,11.173586l-36.314156,0l0,-21.299649l3.666333,0l0,17.458729l28.806902,0l0,-17.458729l3.666333,0l0,21.299649l0.174587,0zm0.698349,-33.695346l-11.871935,-16.760379l2.967984,-1.92046l12.046523,16.760379l-3.142571,1.92046z" class="st0 selected" filter="url(#f071)" fill="#000000" fill-opacity="1"/>
 </g>
<defs><filter id="f071" xmlns:inkscape="http://www.inkscape.org/namespaces/inkscape" inkscape:label="Colorize" inkscape:menu="Color" inkscape:menu-tooltip="Blend image or object with a flood color and set lightness and contrast" x="0" y="0" width="1" height="1" color-interpolation-filters="sRGB">
            <feColorMatrix values="1" in="SourceGraphic" type="saturate" result="result2"/>
            <feFlood flood-color="#fe6600" flood-opacity="1" result="result1"/>
            <feBlend in2="result2" mode="multiply" in="result1" result="result3"/>
            <feComposite operator="in" k2="1" result="result4" in2="SourceGraphic"/>
        </filter></defs></svg>